<?xml version="1.0" encoding="iso-8859-1"?>
<!-- Generator: Adobe Illustrator 19.0.0, SVG Export Plug-In . SVG Version: 6.00 Build 0)  -->
<svg version="1.1" id="Layer_1" 
	xmlns="http://www.w3.org/2000/svg" 
	xmlns:xlink="http://www.w3.org/1999/xlink" x="0px" y="0px" viewBox="0 0 512.001 512.001" style="enable-background:new 0 0 512.001 512.001;" xml:space="preserve">
	<g style="fill: hsl(0,0%,100%)">
		<path d="M384.228,445.094c35.501-5.039,62.897-35.609,62.897-72.477c0-32.859-21.18-61.77-51.631-68.844
			c-11.201-2.602-45.441-8.223-45.441-8.223l-29.933-76.52c-20.999-53.684-21.559-113.026-1.573-167.095l10.391-28.113
			c3.386-9.162-1.295-19.332-10.457-22.72c-9.165-3.386-19.333,1.296-22.72,10.457l-10.391,28.113
			c-22.993,62.206-22.35,130.48,1.81,192.242l22.499,57.516c-12.876-1.944-26.507-3.994-40.351-6.064
			c-70.092-10.48-145.478-21.447-154.018-21.447c-61.039,0-110.698,49.658-110.698,110.697c0,37.74,18.988,71.122,47.907,91.113
			l-18.081,18.081c-6.906,6.906-6.906,18.103,0,25.01c6.905,6.906,18.103,6.907,25.01,0c27.972-27.971,26.224-26.153,27.172-27.284
			c9.155,2.459,18.771,3.778,28.691,3.778c11.918,0,148.774-20.552,225.852-32.273c1.571,2.615-2.279-1.583,54.128,55.684
			c6.854,6.958,18.05,7.043,25.008,0.19c6.958-6.854,7.044-18.05,0.19-25.008L384.228,445.094z M115.312,428.207
			c-30.701,0-55.589-24.889-55.589-55.59s24.889-55.589,55.589-55.589c30.7,0,55.589,24.889,55.589,55.589
			C170.901,403.318,146.012,428.207,115.312,428.207z"/>

		<path d="M502.813,35.402c-6.555-7.239-17.739-7.794-24.978-1.24l-22.218,20.117c-49.163,44.513-80.178,105.337-87.333,171.27
			l-1.658,15.28c3.829,9.79,7.01,17.917,9.658,24.679l22.883,3.308l4.28-39.451c6.218-57.308,33.176-110.177,75.908-148.865
			l22.219-20.117C508.813,53.826,509.368,42.642,502.813,35.402z"/>
	</g>
</svg>
